HIERARCHY
ROOT Hips
{
    OFFSET 0.0 0.0 0.0
    CHANNELS 6 Xposition Yposition Zposition Zrotation Xrotation Yrotation
    JOINT Spine
    {
        OFFSET 0.0 5.0 0.0
        CHANNELS 3 Zrotation Xrotation Yrotation
        JOINT Chest
        {
            OFFSET 0.0 5.0 0.0
            CHANNELS 3 Zrotation Xrotation Yrotation
            JOINT Neck
            {
                OFFSET 0.0 8.0 0.0
                CHANNELS 3 Zrotation Xrotation Yrotation
                JOINT Head
                {
                    OFFSET 0.0 5.0 0.0
                    CHANNELS 3 Zrotation Xrotation Yrotation
                    End Site
                    {
                        OFFSET 0.0 3.0 0.0
                    }
                }
            }
            JOINT LeftShoulder
            {
                OFFSET -5.0 0.0 0.0
                CHANNELS 3 Zrotation Xrotation Yrotation
                JOINT LeftArm
                {
                    OFFSET 0.0 -10.0 0.0
                    CHANNELS 3 Zrotation Xrotation Yrotation
                    JOINT LeftForeArm
                    {
                        OFFSET 0.0 -10.0 0.0
                        CHANNELS 3 Zrotation Xrotation Yrotation
                        End Site
                        {
                            OFFSET 0.0 -3.0 0.0
                        }
                    }
                }
            }
        }
    }
}

MOTION
Frames: 36
Frame Time: 0.033333
960.000000 445.000000 106.042583 0.000000 0.000000 0.000000 0.000000 0.000000 0.000000 23.025492 -22.905163 0.000000 180.000000 9.728379 0.000000 21.801409 -6.334178 -0.000000 158.198591 12.189014 30.000000 15.945396 -3.265085 0.000000 18.000000 0.323247 0.000000
1691.525230 140.756605 92.529285 0.000000 0.000000 0.000000 0.000000 0.000000 0.000000 -163.376529 -6.417027 4.973798 16.623471 0.779876 4.973798 -171.853121 -3.441269 3.759997 99.744051 -7.693500 29.763441 -171.126653 -3.446008 -3.759997 0.673538 0.494650 0.313953
1636.048050 128.802021 105.777503 0.000000 0.000000 0.000000 0.000000 0.000000 0.000000 157.904128 -36.615911 9.635073 -22.095872 22.185430 9.635073 -171.936471 -4.155350 7.460697 -143.675701 -1.587881 29.057495 -173.500805 -3.909677 -7.460697 0.570999 0.403396 0.626666
1578.156967 80.474526 135.702564 0.000000 0.000000 0.000000 0.000000 0.000000 0.000000 -139.519796 4.504287 13.690942 40.480204 -12.908394 13.690942 -174.507724 -3.322154 11.043737 119.111399 0.424079 27.893295 -173.607258 -4.318909 -11.043737 0.461920 0.486954 0.936907
960.418757 444.998421 119.789660 0.000000 0.000000 0.000000 0.000000 0.000000 0.000000 25.077893 -23.985649 16.886559 180.000000 15.953794 16.886559 23.861935 -3.618295 14.452610 156.138065 15.580121 26.289200 17.903699 4.534855 -14.452610 18.000000 -1.122666 1.243449
960.523360 444.997533 122.914950 0.000000 0.000000 0.000000 0.000000 0.000000 0.000000 25.638906 21.652675 19.021130 180.000000 -7.116611 19.021130 24.425035 4.644370 17.633558 155.574965 0.952739 24.270510 18.452907 -0.531748 -17.633558 18.000000 -0.351192 1.545085
960.627905 444.996447 134.700588 0.000000 0.000000 0.000000 0.000000 0.000000 0.000000 26.219073 -4.793018 19.960535 180.000000 5.934888 19.960535 25.006291 -3.369807 20.536413 154.993709 -1.266776 21.869059 19.024920 -4.742977 -20.536413 18.000000 0.045806 1.840623
1126.242828 420.359820 127.857634 0.000000 0.000000 0.000000 0.000000 0.000000 0.000000 31.410514 -1.394933 19.645745 -148.589486 -2.818658 19.645745 32.280463 2.357139 23.115397 -131.603972 -0.121274 19.122720 45.585331 0.982304 -23.115397 -13.449727 -0.058409 2.128896
1257.895088 650.549197 144.738700 0.000000 0.000000 0.000000 0.000000 0.000000 0.000000 25.073180 -9.392627 18.096541 -154.926820 -13.438353 18.096541 46.260945 9.672328 25.329838 -154.651428 -5.929657 16.074804 27.339487 4.946895 -25.329838 -13.619892 0.979254 2.408768
960.941083 444.992008 134.739822 0.000000 0.000000 0.000000 0.000000 0.000000 0.000000 28.072001 16.425673 15.410265 180.000000 -23.870788 15.410265 26.849221 12.001562 27.144812 153.150779 -12.964498 12.773379 20.864045 -4.684116 -27.144812 18.000000 1.596474 2.679134
1163.815842 547.748709 156.530039 0.000000 0.000000 0.000000 0.000000 0.000000 0.000000 117.162728 3.854898 11.755705 -62.837272 0.970543 11.755705 102.363764 -5.762778 28.531695 -47.376450 -7.179640 9.270510 104.768601 5.730921 -28.531695 -6.003489 -0.223107 2.938926
961.149372 444.988063 133.832519 0.000000 0.000000 0.000000 0.000000 0.000000 0.000000 29.395983 -6.120429 7.362491 180.000000 -14.459943 7.362491 28.146217 2.645853 29.468618 151.853783 2.780998 5.621439 22.170006 -2.544854 -29.468618 18.000000 -0.264303 3.187120
1136.717377 590.104480 145.659128 0.000000 0.000000 0.000000 0.000000 0.000000 0.000000 115.752126 -1.162865 2.506665 -64.247874 -12.241001 2.506665 73.638146 2.441028 29.940802 -21.842452 -5.402808 1.883716 75.369282 1.276684 -29.940802 -6.767207 -0.655663 3.422736
1163.079758 634.077559 158.171234 0.000000 0.000000 0.000000 0.000000 0.000000 0.000000 132.174340 2.650582 -2.506665 -47.825660 -0.455349 -2.506665 94.255711 -3.515454 29.940802 -149.364979 -7.430832 -1.883716 30.021641 5.414911 -29.940802 -5.096180 0.277828 3.644843
961.460830 444.980668 147.976656 0.000000 0.000000 0.000000 0.000000 0.000000 0.000000 31.497152 -20.939807 -7.362491 180.000000 -19.892062 -7.362491 30.152455 10.901486 29.468618 149.847545 -14.817269 -5.621439 24.175589 12.881801 -29.468618 18.000000 0.029776 3.852566
1097.449951 565.089898 163.296513 0.000000 0.000000 0.000000 0.000000 0.000000 0.000000 -119.219568 -6.670179 -11.755705 60.780432 3.923022 -11.755705 -150.180642 -6.863988 28.531695 48.804955 -1.156858 -9.270510 -149.874178 -5.608405 -28.531695 2.713854 0.602392 4.045085
1114.140244 528.302071 156.129732 0.000000 0.000000 0.000000 0.000000 0.000000 0.000000 -142.671523 -4.854148 -15.410265 37.328477 3.532144 -15.410265 -177.395681 -1.226348 27.144812 34.687329 0.610436 -12.773379 161.894167 2.818111 -27.144812 -0.910956 -0.180695 4.221640
1116.433640 479.728639 147.475431 0.000000 0.000000 0.000000 0.000000 0.000000 0.000000 -102.267481 6.668813 -18.096541 77.732519 -3.024513 -18.096541 -163.695626 -1.910216 25.329838 38.575767 0.064761 -16.074804 -176.001122 0.802786 -25.329838 0.706594 -0.159417 4.381533
1135.931282 466.493965 131.715971 0.000000 0.000000 0.000000 0.000000 0.000000 0.000000 -112.868406 -13.064272 -19.645745 67.131594 -3.491849 -19.645745 -159.517862 3.924388 23.115397 36.204678 -2.079579 -19.122720 -154.426613 -5.381881 -23.115397 2.428729 0.508794 4.524135
1141.618767 467.420679 135.663469 0.000000 0.000000 0.000000 0.000000 0.000000 0.000000 -123.086385 0.173538 -19.960535 56.913615 -1.139864 -19.960535 -154.885724 1.257046 20.536413 36.481623 -2.283131 -21.869059 -153.965441 -5.444713 -20.536413 2.446728 0.492944 4.648882
1150.647926 469.370956 133.127909 0.000000 0.000000 0.000000 0.000000 0.000000 0.000000 -43.953779 -30.406869 -19.021130 136.046221 29.214152 -19.021130 -154.327268 -7.723929 17.633558 60.745168 1.054721 -24.270510 -153.350642 -6.613386 -17.633558 2.386216 0.586591 4.755283
1151.529922 496.420240 143.127308 0.000000 0.000000 0.000000 0.000000 0.000000 0.000000 -116.362129 1.157447 -16.886559 63.637871 4.566018 -16.886559 -149.081043 -2.527780 14.452610 35.941860 -2.125808 -26.289200 -156.847177 2.384630 -14.452610 2.056513 0.006202 4.842916
1148.402367 515.713574 149.948066 0.000000 0.000000 0.000000 0.000000 0.000000 0.000000 -118.252650 3.476238 -13.690942 61.747350 7.222869 -13.690942 -138.082896 -1.172856 11.043737 -156.312677 -7.095657 -27.893295 21.649626 10.348695 -11.043737 2.962417 -0.082303 4.911436
1175.363617 533.368646 121.232482 0.000000 0.000000 0.000000 0.000000 0.000000 0.000000 -95.476638 -11.092855 -9.635073 84.523362 2.949932 -9.635073 -113.907461 -0.054594 7.460697 -155.995907 -6.624651 -29.057495 12.512064 8.765286 -7.460697 -16.748794 -0.876529 4.960574
1199.533310 485.991104 136.830304 0.000000 0.000000 0.000000 0.000000 0.000000 0.000000 -100.003195 -15.649485 -4.973798 79.996805 5.006733 -4.973798 -86.083188 -2.612390 3.759997 38.843754 1.425503 -29.763441 -106.539452 2.500170 -3.759997 6.197806 -0.129363 4.990134
962.588190 444.938442 146.306740 0.000000 0.000000 0.000000 0.000000 0.000000 0.000000 39.579754 -38.933118 -0.000000 180.000000 32.309983 -0.000000 36.680773 -13.790211 0.000000 143.319227 25.427299 -30.000000 29.388385 -10.129253 -0.000000 18.000000 -1.354591 5.000000
1142.094727 445.716287 136.365306 0.000000 0.000000 0.000000 0.000000 0.000000 0.000000 -140.228454 32.149535 4.973798 39.771546 12.401293 4.973798 -156.118008 -5.941897 -3.759997 3.479189 7.276197 -29.763441 -158.005660 -5.932177 3.759997 2.150019 0.589610 4.990134
1164.005928 424.847746 114.401581 0.000000 0.000000 0.000000 0.000000 0.000000 0.000000 -84.241076 -3.187196 9.635073 95.758924 -9.282430 9.635073 -156.181584 -6.083600 -7.460697 166.928360 -6.347021 -29.057495 -154.947270 -6.210576 7.460697 2.644196 0.645930 4.960574
1124.208755 418.286655 123.532553 0.000000 0.000000 0.000000 0.000000 0.000000 0.000000 -117.427077 -20.281217 13.690942 62.572923 -3.628715 13.690942 -155.943063 -5.392717 -11.043737 14.023837 -5.465020 -27.893295 -157.382674 -5.112362 11.043737 2.188130 0.521128 4.911436
962.990408 444.917226 106.976992 0.000000 0.000000 0.000000 0.000000 0.000000 0.000000 42.110883 19.135100 16.886559 180.000000 21.352369 16.886559 37.946959 -1.615159 -14.452610 142.053041 -5.625880 -26.289200 29.293612 18.250286 14.452610 18.000000 -1.881567 4.842916
963.090170 444.911436 107.629277 0.000000 0.000000 0.000000 0.000000 0.000000 0.000000 42.659200 -23.002630 19.021130 180.000000 11.985036 19.021130 38.119107 -16.243098 -17.633558 141.880893 3.703865 -24.270510 29.068887 -5.741448 17.633558 18.000000 0.852301 4.755283
1186.646461 396.272757 104.914717 0.000000 0.000000 0.000000 0.000000 0.000000 0.000000 -72.847419 -9.452494 19.960535 107.152581 33.101053 19.960535 -156.703603 -5.404328 -20.536413 178.447294 9.813000 -21.869059 -157.212393 -5.027490 20.536413 1.964058 0.463474 4.648882
1313.051605 426.636125 99.261558 0.000000 0.000000 0.000000 0.000000 0.000000 0.000000 90.994869 -15.241569 19.645745 -89.005131 -7.460830 19.645745 -160.515303 -4.071995 -23.115397 -153.248861 -2.643808 -19.122720 -159.640525 -4.470684 23.115397 0.000000 0.000000 0.000000
1347.999344 420.772226 83.923993 0.000000 0.000000 0.000000 0.000000 0.000000 0.000000 90.154351 -4.755735 18.096541 -89.845649 -1.456586 18.096541 -162.053401 -3.565174 -25.329838 -136.198880 5.616990 -16.074804 -160.991694 -5.268580 25.329838 0.000000 0.000000 0.000000
1344.315948 421.031681 96.691762 0.000000 0.000000 0.000000 0.000000 0.000000 0.000000 69.757587 -1.237683 15.410265 -110.242413 -3.270469 15.410265 25.616746 4.909999 -27.144812 -157.821005 -3.682046 -12.773379 17.214985 3.223949 27.144812 -16.704706 0.106005 4.221640
1350.307617 440.309436 81.129458 0.000000 0.000000 0.000000 0.000000 0.000000 0.000000 71.124018 12.955722 11.755705 -108.875982 0.814569 11.755705 42.739987 -2.343559 -28.531695 -142.315466 -3.760431 -9.270510 16.600926 3.837302 28.531695 -16.660102 0.000530 4.045085
